# xmcd
# Copyright (C) 1995-1998 Ti Kan
#
# Track frame offsets:
#       150
#       1425
#       16793
#       24393
#       26578
#
# Disc length: 487 seconds
#
# Revision: 0
# Processed by: cddbd v1.5.2PL0 Copyright (c) Steve Scherf et al.
# Submitted via: CD-Transfer v1.0
#
DISCID=2901e505
DTITLE=Sämi Krababble and The Fuckin' Rainbow Warriors - 
DYEAR=1900
DGENRE=
TTITLE0=Jingle Knarken
TTITLE1=Beitrag Wenn Gott Schwul Wäre
TTITLE2=Backseat  Driver The Specials
TTITLE3=Sämi Special Signet
TTITLE4=Strassemusig Episode Ii
EXTD=
EXTT0=
EXTT1=
EXTT2=
EXTT3=
EXTT4=
PLAYORDER=
